<?xml version="1.0" standalone="no"?>
<!DOCTYPE svg PUBLIC "-//W3C//DTD SVG 20010904//EN"
 "http://www.w3.org/TR/2001/REC-SVG-20010904/DTD/svg10.dtd">
<svg version="1.0" xmlns="http://www.w3.org/2000/svg"
 width="500.000000pt" height="500.000000pt" viewBox="0 0 500.000000 500.000000"
 preserveAspectRatio="xMidYMid meet">
<metadata>
Created by potrace 1.14, written by Peter Selinger 2001-2017
</metadata>
<g transform="translate(0.000000,500.000000) scale(0.100000,-0.100000)"
fill="#000000" stroke="none">
<path d="M2361 4496 c-90 -90 -122 -129 -118 -141 15 -37 180 -266 187 -258
12 12 190 395 190 408 0 16 -103 115 -120 115 -9 0 -71 -56 -139 -124z"/>
<path d="M2570 4258 c-51 -112 -97 -207 -101 -212 -5 -5 -17 1 -28 15 -11 13
-20 19 -21 13 0 -5 -6 -18 -13 -28 -11 -15 -24 0 -111 128 -55 81 -102 146
-106 146 -12 0 -1235 -1244 -1235 -1257 0 -13 614 -771 626 -772 3 -1 66 126
138 282 554 1181 675 1437 683 1437 5 0 13 -11 19 -23 9 -21 -39 -130 -393
-885 l-403 -861 -22 21 -21 20 -14 -26 c-14 -28 -35 -4 -649 748 -16 20 -24
14 -260 -228 -134 -137 -245 -254 -247 -261 -4 -16 859 -889 868 -878 4 4 67
137 140 295 127 273 135 287 152 271 10 -9 18 -21 18 -26 0 -6 -61 -141 -136
-301 l-135 -289 183 -186 c101 -102 221 -224 265 -271 45 -46 84 -82 86 -80 3
3 62 111 132 240 71 129 130 237 131 239 2 2 13 -4 25 -14 21 -20 27 -17 43
20 3 6 7 6 13 -1 78 -101 646 -784 652 -784 5 0 245 241 535 534 l527 535
-434 633 c-239 348 -438 633 -443 633 -4 0 -187 -328 -406 -730 -218 -401
-407 -747 -419 -769 l-22 -39 -18 24 c-16 20 -20 22 -29 9 -5 -8 -10 -18 -10
-22 0 -25 -41 20 -261 289 -300 365 -273 327 -257 358 14 25 17 21 273 -290
142 -173 261 -315 264 -315 3 0 81 139 173 308 527 968 667 1224 672 1230 4 3
14 -4 22 -17 l16 -23 17 26 17 26 430 -627 c236 -345 436 -635 444 -646 15
-18 18 -16 80 50 56 59 91 117 247 403 l182 334 -229 235 c-126 130 -366 373
-533 539 l-304 304 -159 -292 c-157 -289 -158 -292 -176 -270 l-18 22 -18 -22
-19 -23 -273 398 c-150 219 -275 405 -277 414 -2 9 2 25 10 35 13 18 36 -13
293 -388 240 -350 281 -404 291 -390 7 9 78 138 159 286 l147 270 -74 76
c-153 160 -594 602 -599 602 -3 0 -48 -91 -100 -202z"/>
<path d="M4359 2385 c-70 -129 -124 -235 -120 -235 3 0 86 83 183 184 l177
183 -52 52 c-29 28 -55 51 -57 51 -3 0 -62 -106 -131 -235z"/>
<path d="M2030 1259 c-69 -127 -127 -238 -129 -247 -4 -18 577 -602 599 -602
8 0 80 65 160 145 114 114 143 148 135 160 -19 29 -630 774 -635 774 -3 0 -61
-103 -130 -230z"/>
</g>
</svg>
